<?xml version="1.0" ?><svg enable-background="new 0 0 32 32" version="1.1" viewBox="0 0 32 32" xml:space="preserve" xmlns="http://www.w3.org/2000/svg" xmlns:xlink="http://www.w3.org/1999/xlink"><g id="Full"><g><path d="M1.645,11.105h0.682v3.534c0,1.402-0.689,1.834-1.598,1.834c-0.25,0-0.556-0.056-0.729-0.126l0.102-0.556    c0.141,0.054,0.345,0.102,0.573,0.102c0.61,0,0.971-0.275,0.971-1.309V11.105z" fill="#FF6600"/><path d="M5.542,16.386l-0.054-0.478H5.464c-0.212,0.297-0.619,0.564-1.159,0.564c-0.768,0-1.161-0.541-1.161-1.089    c0-0.916,0.816-1.418,2.281-1.411v-0.078c0-0.313-0.087-0.877-0.862-0.877c-0.353,0-0.721,0.11-0.987,0.282l-0.156-0.454    c0.313-0.204,0.767-0.338,1.246-0.338c1.159,0,1.441,0.792,1.441,1.552v1.418c0,0.33,0.015,0.651,0.063,0.909H5.542z M5.44,14.45    c-0.753-0.015-1.606,0.119-1.606,0.855c0,0.447,0.297,0.658,0.651,0.658c0.493,0,0.806-0.313,0.916-0.634    c0.024-0.071,0.039-0.149,0.039-0.219V14.45z" fill="#FF6600"/><path d="M7.424,12.594l0.744,2.131c0.126,0.345,0.228,0.658,0.306,0.971h0.024    c0.085-0.313,0.196-0.626,0.321-0.971l0.736-2.131h0.721l-1.489,3.792H8.129l-1.441-3.792H7.424z" fill="#FF6600"/><path d="M12.998,16.386l-0.054-0.478H12.92c-0.212,0.297-0.619,0.564-1.159,0.564    c-0.768,0-1.161-0.541-1.161-1.089c0-0.916,0.816-1.418,2.281-1.411v-0.078c0-0.313-0.087-0.877-0.862-0.877    c-0.353,0-0.721,0.11-0.987,0.282l-0.156-0.454c0.313-0.204,0.767-0.338,1.246-0.338c1.159,0,1.441,0.792,1.441,1.552v1.418    c0,0.33,0.015,0.651,0.063,0.909H12.998z M12.896,14.45c-0.753-0.015-1.606,0.119-1.606,0.855c0,0.447,0.297,0.658,0.651,0.658    c0.493,0,0.806-0.313,0.916-0.634c0.024-0.071,0.039-0.149,0.039-0.219V14.45z" fill="#FF6600"/><path d="M14.582,15.68c0.204,0.134,0.564,0.274,0.909,0.274c0.501,0,0.736-0.25,0.736-0.563    c0-0.33-0.196-0.51-0.705-0.698c-0.682-0.243-1.003-0.619-1.003-1.073c0-0.612,0.494-1.113,1.309-1.113    c0.384,0,0.721,0.11,0.933,0.236l-0.173,0.501c-0.148-0.095-0.423-0.219-0.775-0.219c-0.408,0-0.636,0.235-0.636,0.517    c0,0.313,0.228,0.454,0.722,0.642c0.658,0.25,0.994,0.58,0.994,1.144c0,0.666-0.517,1.136-1.418,1.136    c-0.416,0-0.8-0.102-1.066-0.258L14.582,15.68z" fill="#FF6600"/><path d="M20.484,16.245c-0.18,0.094-0.58,0.219-1.089,0.219c-1.144,0-1.888-0.775-1.888-1.934    c0-1.168,0.799-2.014,2.038-2.014c0.406,0,0.767,0.102,0.955,0.196l-0.156,0.534c-0.165-0.095-0.423-0.18-0.799-0.18    c-0.87,0-1.341,0.642-1.341,1.433c0,0.877,0.564,1.418,1.317,1.418c0.391,0,0.649-0.101,0.846-0.187L20.484,16.245z" fill="#FF6600"/><path d="M21.291,13.777c0-0.447-0.007-0.831-0.031-1.183h0.603l0.024,0.744h0.031    c0.173-0.51,0.588-0.831,1.05-0.831c0.078,0,0.133,0.008,0.196,0.024v0.651c-0.07-0.015-0.141-0.024-0.235-0.024    c-0.486,0-0.831,0.369-0.925,0.886c-0.015,0.094-0.031,0.204-0.031,0.321v2.021h-0.683V13.777z" fill="#FF6600"/><path d="M24.655,11.528c0.008,0.235-0.165,0.423-0.439,0.423c-0.243,0-0.415-0.189-0.415-0.423    c0-0.243,0.18-0.43,0.43-0.43C24.49,11.098,24.655,11.285,24.655,11.528z M23.887,16.386v-3.792h0.69v3.792H23.887z" fill="#FF6600"/><path d="M25.722,13.831c0-0.485-0.015-0.877-0.031-1.237h0.619l0.032,0.651h0.015    c0.282-0.462,0.729-0.737,1.348-0.737c0.916,0,1.606,0.777,1.606,1.927c0,1.363-0.831,2.038-1.724,2.038    c-0.501,0-0.941-0.219-1.168-0.596h-0.015v2.062h-0.683V13.831z M26.405,14.842c0,0.102,0.015,0.196,0.031,0.282    c0.126,0.478,0.541,0.807,1.034,0.807c0.729,0,1.152-0.596,1.152-1.465c0-0.76-0.399-1.411-1.129-1.411    c-0.469,0-0.908,0.337-1.042,0.853c-0.024,0.087-0.046,0.189-0.046,0.282V14.842z" fill="#FF6600"/><path d="M31.013,11.504v1.089H32v0.525h-0.987v2.045c0,0.469,0.133,0.736,0.517,0.736    c0.18,0,0.314-0.024,0.399-0.046l0.032,0.517c-0.134,0.054-0.345,0.094-0.612,0.094c-0.321,0-0.58-0.102-0.744-0.289    c-0.196-0.204-0.265-0.542-0.265-0.987v-2.069h-0.588v-0.525h0.588v-0.909L31.013,11.504z" fill="#FF6600"/><rect fill="#22ACDD" height="1.018" width="32" y="19.884"/></g></g></svg>